<?xml version="1.0" encoding="UTF-8" standalone="no"?>
<!-- Created with Inkscape (http://www.inkscape.org/) -->

<svg
   xmlns:dc="http://purl.org/dc/elements/1.1/"
   xmlns:cc="http://creativecommons.org/ns#"
   xmlns:rdf="http://www.w3.org/1999/02/22-rdf-syntax-ns#"
   xmlns:svg="http://www.w3.org/2000/svg"
   xmlns="http://www.w3.org/2000/svg"
   xmlns:sodipodi="http://sodipodi.sourceforge.net/DTD/sodipodi-0.dtd"
   xmlns:inkscape="http://www.inkscape.org/namespaces/inkscape"
   id="svg2"
   version="1.1"
   inkscape:version="0.92.3 (2405546, 2018-03-11)"
   xml:space="preserve"
   width="1198.1172"
   height="1312.9277"
   viewBox="0 0 1198.1172 1312.9277"
   sodipodi:docname="Kauz weißer Körper.svg"><metadata
     id="metadata8"><rdf:RDF><cc:Work
         rdf:about=""><dc:format>image/svg+xml</dc:format><dc:type
           rdf:resource="http://purl.org/dc/dcmitype/StillImage" /><dc:title></dc:title></cc:Work></rdf:RDF></metadata><defs
     id="defs6" /><sodipodi:namedview
     pagecolor="#ffffff"
     bordercolor="#666666"
     borderopacity="1"
     objecttolerance="10"
     gridtolerance="10"
     guidetolerance="10"
     inkscape:pageopacity="0"
     inkscape:pageshadow="2"
     inkscape:window-width="1920"
     inkscape:window-height="986"
     id="namedview4"
     showgrid="false"
     inkscape:zoom="0.70710678"
     inkscape:cx="445.82507"
     inkscape:cy="863.30907"
     inkscape:window-x="-11"
     inkscape:window-y="-11"
     inkscape:window-maximized="1"
     inkscape:current-layer="g12"
     fit-margin-top="0"
     fit-margin-left="0"
     fit-margin-right="0"
     fit-margin-bottom="0" /><g
     inkscape:groupmode="layer"
     id="layer1"
     inkscape:label="ink_ext_XXXXXX 1"
     style="display:inline"
     transform="translate(-6209.3991,3803.4808)" /><g
     id="g10"
     inkscape:groupmode="layer"
     inkscape:label="ink_ext_XXXXXX"
     transform="matrix(1.25,0,0,-1.25,-6209.3991,3989.9183)"
     style="display:inline"><g
   id="g12"
   transform="matrix(1.1591147,0,0,1.1591147,198.2032,1758.9443)"><g
     id="g919"><path
       inkscape:connector-curvature="0"
       style="opacity:1;fill:#ffffff;fill-opacity:1;stroke:none;stroke-width:66.92481232;stroke-miterlimit:4;stroke-dasharray:none;stroke-opacity:1"
       d="m 4518.6048,1052.6465 a 275.11347,204.5538 0 0 1 -275.1144,-204.55406 275.11347,204.5538 0 0 1 8.9037,-50.59357 275.11347,204.5538 0 0 0 50.1568,-75.67327 275.11347,204.5538 0 0 1 216.0539,-78.28713 275.11347,204.5538 0 0 1 216.9678,78.92334 275.11347,204.5538 0 0 0 55.0704,96.55272 275.11347,204.5538 0 0 1 3.0747,29.07791 275.11347,204.5538 0 0 1 -275.1129,204.55406 z"
       id="path889" /><path
       id="path1430"
       transform="matrix(0.69018191,0,0,-0.69018191,0,1491.5469)"
       d="m 6562.9766,1015.9199 a 398.61008,296.37665 0 0 0 -398.6114,296.377 398.61008,296.37665 0 0 0 12.9004,73.3047 398.61008,296.37665 0 0 1 72.6719,109.6425 398.61008,296.37665 0 0 0 313.0391,113.4297 398.61008,296.37665 0 0 0 314.3632,-114.3515 398.61008,296.37665 0 0 1 79.7911,-139.8946 398.61008,296.37665 0 0 0 4.455,-42.1308 398.61008,296.37665 0 0 0 -398.6093,-296.377 z"
       style="opacity:1;fill:#ffffff;fill-opacity:1;stroke:none;stroke-width:96.96691895;stroke-miterlimit:4;stroke-dasharray:none;stroke-opacity:1"
       inkscape:connector-curvature="0" /><path
       inkscape:export-ydpi="96"
       inkscape:export-xdpi="96"
       inkscape:connector-curvature="0"
       id="path22"
       style="fill:#231f20;fill-opacity:1;fill-rule:evenodd;stroke:none"
       d="m 4714.22,1121 c 0,-36.27 -82.28,-65.7 -183.79,-65.7 -101.5,0 -183.79,29.43 -183.79,65.7 0,36.29 82.29,65.7 183.79,65.7 101.51,0 183.79,-29.41 183.79,-65.7" /><path
       inkscape:export-ydpi="96"
       inkscape:export-xdpi="96"
       inkscape:connector-curvature="0"
       id="path24"
       style="fill:#231f20;fill-opacity:1;fill-rule:evenodd;stroke:none"
       d="m 4840.78,1170.21 c 0,0 18.8,23.93 39.33,27.34 20.52,3.42 -39.33,-8.54 -39.33,-109.4 0,-100.869 -15.36,60.61 49.59,57.66 64.98,-2.96 -33.56,17.96 -32.48,-62.81" /><path
       inkscape:export-ydpi="96"
       inkscape:export-xdpi="96"
       inkscape:connector-curvature="0"
       id="path26"
       style="fill:#231f20;fill-opacity:1;fill-rule:evenodd;stroke:none"
       d="m 4209.96,1170.21 c 0,0 -18.81,23.93 -39.33,27.34 -20.52,3.42 39.33,-8.54 39.33,-109.4 0,-100.869 15.39,60.61 -49.59,57.66 -64.95,-2.96 33.59,17.96 32.48,-62.81" /><path
       inkscape:export-ydpi="96"
       inkscape:export-xdpi="96"
       inkscape:connector-curvature="0"
       id="path28"
       style="fill:#231f20;fill-opacity:1;fill-rule:evenodd;stroke:none"
       d="m 4702.22,594.086 c 0,0 -13.76,-111.305 31.64,-142.164 0,0 14.28,27.199 15.43,35.348 1.18,8.14 -27.13,23.085 -47.07,106.816" /><path
       inkscape:export-ydpi="96"
       inkscape:export-xdpi="96"
       inkscape:connector-curvature="0"
       id="path30"
       style="fill:#231f20;fill-opacity:1;fill-rule:evenodd;stroke:none"
       d="m 4739.76,615.156 c 0,0 -11.3,-91.363 25.96,-116.715 0,0 11.76,22.34 12.7,29.043 0.97,6.676 -22.3,18.922 -38.66,87.672" /><path
       inkscape:export-ydpi="96"
       inkscape:export-xdpi="96"
       inkscape:connector-curvature="0"
       id="path32"
       style="fill:#231f20;fill-opacity:1;fill-rule:evenodd;stroke:none"
       d="m 4767.77,632.25 c 0,0 -7.98,-64.395 18.3,-82.246 0,0 8.27,15.738 8.93,20.445 0.68,4.707 -15.7,13.344 -27.23,61.801" /><path
       inkscape:export-ydpi="96"
       inkscape:export-xdpi="96"
       inkscape:connector-curvature="0"
       id="path34"
       style="fill:#231f20;fill-opacity:1;fill-rule:evenodd;stroke:none"
       d="m 4355.46,591.723 c 0,0 13.77,-111.293 -31.65,-142.133 0,0 -14.28,27.191 -15.43,35.332 -1.17,8.148 27.16,23.09 47.08,106.801" /><path
       inkscape:export-ydpi="96"
       inkscape:export-xdpi="96"
       inkscape:connector-curvature="0"
       id="path36"
       style="fill:#231f20;fill-opacity:1;fill-rule:evenodd;stroke:none"
       d="m 4317.91,612.816 c 0,0 11.31,-91.371 -25.96,-116.718 0,0 -11.74,22.343 -12.69,29.019 -0.97,6.703 22.29,18.969 38.65,87.699" /><path
       inkscape:export-ydpi="96"
       inkscape:export-xdpi="96"
       inkscape:connector-curvature="0"
       id="path38"
       style="fill:#231f20;fill-opacity:1;fill-rule:evenodd;stroke:none"
       d="m 4289.9,629.902 c 0,0 7.97,-64.414 -18.31,-82.246 0,0 -8.25,15.727 -8.92,20.453 -0.69,4.707 15.72,13.36 27.23,61.793" /><path
       inkscape:export-ydpi="96"
       inkscape:export-xdpi="96"
       inkscape:connector-curvature="0"
       id="path40"
       style="fill:#231f20;fill-opacity:1;fill-rule:evenodd;stroke:none"
       d="m 4707.4,729.176 c 96.92,-1.238 179.35,77.324 180.82,172.312 1.57,100.732 -75.57,184.112 -171.43,185.222 -104.74,1.19 -186.22,-76.02 -185.65,-178.218 0.56,-94.09 73.55,-178.972 176.26,-179.316 z m -361.68,-0.008 c 103.71,-1.066 177.05,84.031 178.55,177.863 1.58,99.409 -78.1,179.479 -176.23,179.659 -101.07,0.21 -181.17,-79.21 -180.93,-179.37 0.23,-98.32 80.01,-177.89 178.61,-178.152 z m 476.9,-135.082 c -43.35,-72.07 -47.5,-121.715 -105.52,-159.297 14.94,25.723 32.28,50.41 44.4,77.422 22.73,50.801 24.36,104.18 12.36,158.305 -2.89,12.949 -8.48,16.277 -21.88,14.89 -86.26,-9.023 -154.97,22.121 -205.58,92.578 -14.56,20.305 -22.61,20.403 -36.95,0.352 -50.97,-71.18 -120.34,-102.188 -207.24,-92.871 -12.84,1.379 -17.45,-2.215 -20.28,-14.317 -17.98,-77.574 -4.1,-148.605 42.44,-213.199 5.05,-6.988 10.69,-13.59 15.97,-20.429 0.29,-0.309 -0.02,-1.071 -0.16,-3.489 -64.98,40.367 -178.94,304.824 -162.75,309.637 -3.09,4.277 -5.67,8.574 -8.93,12.266 -47.88,54.589 -60.29,117.929 -51.04,188.691 7.69,59.015 37.94,108.005 63.04,159.485 20.57,42.21 42.05,84 45.31,132.17 94.15,-47.51 197.89,-86.24 299.05,-101.46 22.84,-3.44 47.86,4.21 71.31,9.32 57.94,12.72 113.97,50.69 171.33,65.81 21.7,5.73 41.88,17.25 62.86,26.19 2.17,-58.06 32.46,-108.25 59.21,-159.27 28.45,-54.33 51.18,-109.628 51.95,-172.171 0.67,-55.699 -16.93,-104.418 -52.7,-146.851" /><path
       inkscape:export-ydpi="96"
       inkscape:export-xdpi="96"
       inkscape:connector-curvature="0"
       id="path42"
       style="fill:#f14624;fill-opacity:1;fill-rule:evenodd;stroke:none"
       d="m 4481.77,330.121 c -9.27,0 -17.25,0 -26.61,0 -5.82,13.301 -6.03,39.098 -0.12,55.02 9.14,0 17.26,0 26.83,0 7.01,-16.039 7.03,-38.59 -0.1,-55.02" /><path
       inkscape:export-ydpi="96"
       inkscape:export-xdpi="96"
       inkscape:connector-curvature="0"
       id="path44"
       style="fill:#f14624;fill-opacity:1;fill-rule:evenodd;stroke:none"
       d="m 4445.33,330.121 c -9.27,0 -17.24,0 -26.61,0 -5.82,13.301 -6.03,39.098 -0.11,55.02 9.14,0 17.25,0 26.84,0 6.99,-16.039 7.03,-38.59 -0.12,-55.02" /><path
       inkscape:export-ydpi="96"
       inkscape:export-xdpi="96"
       inkscape:connector-curvature="0"
       id="path46"
       style="fill:#f14624;fill-opacity:1;fill-rule:evenodd;stroke:none"
       d="m 4408.9,330.121 c -9.27,0 -17.24,0 -26.62,0 -5.82,13.301 -6.02,39.098 -0.09,55.02 9.12,0 17.23,0 26.81,0 7.01,-16.039 7.04,-38.59 -0.1,-55.02" /><path
       inkscape:export-ydpi="96"
       inkscape:export-xdpi="96"
       inkscape:connector-curvature="0"
       id="path48"
       style="fill:#f14624;fill-opacity:1;fill-rule:evenodd;stroke:none"
       d="m 4681.76,330.121 c -9.28,0 -17.26,0 -26.62,0 -5.81,13.301 -6.03,39.098 -0.1,55.02 9.12,0 17.24,0 26.85,0 6.98,-16.039 7.03,-38.59 -0.13,-55.02" /><path
       inkscape:export-ydpi="96"
       inkscape:export-xdpi="96"
       inkscape:connector-curvature="0"
       id="path50"
       style="fill:#f14624;fill-opacity:1;fill-rule:evenodd;stroke:none"
       d="m 4645.33,330.121 c -9.27,0 -17.26,0 -26.62,0 -5.83,13.301 -6.02,39.098 -0.1,55.02 9.12,0 17.23,0 26.82,0 6.99,-16.039 7.03,-38.59 -0.1,-55.02" /><path
       inkscape:export-ydpi="96"
       inkscape:export-xdpi="96"
       inkscape:connector-curvature="0"
       id="path52"
       style="fill:#f14624;fill-opacity:1;fill-rule:evenodd;stroke:none"
       d="m 4608.89,330.121 c -9.25,0 -17.25,0 -26.62,0 -5.82,13.301 -6.01,39.098 -0.1,55.02 9.12,0 17.24,0 26.83,0 7.02,-16.039 7.04,-38.59 -0.11,-55.02" /><path
       inkscape:export-ydpi="96"
       inkscape:export-xdpi="96"
       inkscape:connector-curvature="0"
       id="path54"
       style="fill:#ffffff;fill-opacity:1;fill-rule:evenodd;stroke:none"
       d="m 4421.61,880.809 c -0.16,28.269 -19.44,47.586 -47.6,47.695 -26.81,0.082 -47.9,-21.164 -47.79,-48.215 0.11,-27.461 20.31,-47.246 48.22,-47.234 28.18,0.019 47.38,19.441 47.17,47.754 z m -75.89,-151.641 c -98.6,0.262 -178.38,79.832 -178.61,178.152 -0.24,100.16 79.86,179.58 180.93,179.37 98.13,-0.18 177.81,-80.25 176.23,-179.659 -1.5,-93.832 -74.84,-178.929 -178.55,-177.863" /><path
       inkscape:export-ydpi="96"
       inkscape:export-xdpi="96"
       inkscape:connector-curvature="0"
       id="path56"
       style="fill:#ffffff;fill-opacity:1;fill-rule:evenodd;stroke:none"
       d="m 4680.98,833.055 c 28.02,-0.098 47.95,19.304 48.34,47.09 0.39,26.585 -21.21,48.429 -47.84,48.343 -27.03,-0.062 -48.3,-20.746 -49.01,-47.633 -0.66,-25.671 21.69,-47.703 48.51,-47.8 z m 26.42,-103.879 c -102.71,0.344 -175.7,85.226 -176.26,179.316 -0.57,102.198 80.91,179.408 185.65,178.218 95.86,-1.11 173,-84.49 171.43,-185.222 -1.47,-94.988 -83.9,-173.55 -180.82,-172.312" /><path
       inkscape:export-ydpi="96"
       inkscape:export-xdpi="96"
       inkscape:connector-curvature="0"
       id="path58"
       style="fill:#231f20;fill-opacity:1;fill-rule:evenodd;stroke:none"
       d="m 4419.45,860.34 c 18.45,-0.645 34.58,13.953 35.59,30.301 1.11,17.961 -13.9,34.269 -32.2,33.652 -19.52,-0.652 -31.06,-11.488 -31.53,-31.082 -0.48,-19.719 11.49,-29.856 28.14,-32.871 z m 55.37,20.469 c 0.25,-38.235 -25.66,-64.446 -63.67,-64.465 -37.75,-0.028 -65.02,26.672 -65.14,63.769 -0.16,36.539 28.31,65.223 64.54,65.114 37.99,-0.145 64.02,-26.227 64.27,-64.418" /><path
       inkscape:export-ydpi="96"
       inkscape:export-xdpi="96"
       inkscape:connector-curvature="0"
       id="path60"
       style="fill:#231f20;fill-opacity:1;fill-rule:evenodd;stroke:none"
       d="m 4666.74,892.41 c -0.77,20.008 -16.54,35.121 -34.58,33.555 -20.41,-1.793 -31.2,-13.781 -30.97,-34.453 0.23,-18.567 15.81,-33.535 33.73,-31.711 20.29,2.062 30.16,14.863 31.82,32.609 z m -21.16,-78.496 c -37.54,0.117 -68.89,31.016 -67.94,66.973 0.97,37.676 30.78,66.64 68.63,66.73 37.32,0.11 67.58,-30.48 67.03,-67.738 -0.58,-38.926 -28.47,-66.094 -67.72,-65.965" /><path
       inkscape:export-ydpi="96"
       inkscape:export-xdpi="96"
       inkscape:connector-curvature="0"
       id="path62"
       style="fill:#ffffff;fill-opacity:1;fill-rule:evenodd;stroke:none"
       d="m 4419.45,860.34 c -16.65,3.015 -28.62,13.152 -28.14,32.871 0.47,19.594 12.01,30.43 31.53,31.082 18.3,0.617 33.31,-15.691 32.2,-33.652 -1.01,-16.348 -17.14,-30.946 -35.59,-30.301" /><path
       inkscape:export-ydpi="96"
       inkscape:export-xdpi="96"
       inkscape:connector-curvature="0"
       id="path64"
       style="fill:#ffffff;fill-opacity:1;fill-rule:evenodd;stroke:none"
       d="m 4666.74,892.41 c -1.66,-17.746 -11.53,-30.547 -31.82,-32.609 -17.92,-1.824 -33.5,13.144 -33.73,31.711 -0.23,20.672 10.56,32.66 30.97,34.453 18.04,1.566 33.81,-13.547 34.58,-33.555" /><path
       inkscape:export-ydpi="96"
       inkscape:export-xdpi="96"
       inkscape:connector-curvature="0"
       id="path66"
       style="fill:#f14624;fill-opacity:1;fill-rule:evenodd;stroke:none"
       d="m 4560.52,711.441 c 0,-28.496 -14.62,-51.593 -32.65,-51.593 -18.03,0 -32.64,23.097 -32.64,51.593 0,28.516 14.61,51.622 32.64,51.622 18.03,0 32.65,-23.106 32.65,-51.622" /><path
       inkscape:export-ydpi="96"
       inkscape:export-xdpi="96"
       inkscape:connector-curvature="0"
       id="path68"
       style="fill:#ef2e32;fill-opacity:1;fill-rule:evenodd;stroke:none"
       d="m 4527.87,763.063 c -18.03,0 -32.64,-23.106 -32.64,-51.622 0,-28.496 14.61,-51.593 32.64,-51.593 v 103.215" /><path
       inkscape:export-ydpi="96"
       inkscape:export-xdpi="96"
       inkscape:connector-curvature="0"
       id="path70"
       style="fill:#393536;fill-opacity:1;fill-rule:evenodd;stroke:none"
       d="m 4177.37,1036.36 c 0,0 -82.08,-134.774 -8.62,-245.309 73.47,-110.547 6.42,1.406 6.42,1.406 0,0 -59.9,115.543 2.2,243.903" /><path
       inkscape:export-ydpi="96"
       inkscape:export-xdpi="96"
       inkscape:connector-curvature="0"
       id="path72"
       style="fill:#ffffff;fill-opacity:1;fill-rule:evenodd;stroke:none"
       d="m 4879.63,798.016 c 0,0 68.21,112.054 7.14,203.964 -61.07,91.92 -5.33,-1.17 -5.33,-1.17 0,0 49.79,-96.076 -1.81,-202.794" /></g></g>
</g></svg>