<?xml version="1.0" encoding="UTF-8" standalone="no"?>
<!-- Created with Inkscape (http://www.inkscape.org/) -->

<svg
   width="184.77792mm"
   height="39.231045mm"
   viewBox="0 0 184.77793 39.231044"
   version="1.1"
   id="svg1"
   sodipodi:docname="SVG Kauz Logo NEU für helle Hintergründe.svg"
   inkscape:version="1.3 (0e150ed6c4, 2023-07-21)"
   xml:space="preserve"
   xmlns:inkscape="http://www.inkscape.org/namespaces/inkscape"
   xmlns:sodipodi="http://sodipodi.sourceforge.net/DTD/sodipodi-0.dtd"
   xmlns="http://www.w3.org/2000/svg"
   xmlns:svg="http://www.w3.org/2000/svg"><sodipodi:namedview
     id="namedview1"
     pagecolor="#505050"
     bordercolor="#ffffff"
     borderopacity="1"
     inkscape:showpageshadow="0"
     inkscape:pageopacity="0"
     inkscape:pagecheckerboard="1"
     inkscape:deskcolor="#505050"
     inkscape:document-units="mm"
     inkscape:zoom="1.4142136"
     inkscape:cx="253.14422"
     inkscape:cy="54.800773"
     inkscape:window-width="2560"
     inkscape:window-height="1494"
     inkscape:window-x="-11"
     inkscape:window-y="-11"
     inkscape:window-maximized="1"
     inkscape:current-layer="layer1"
     showguides="true"
     showgrid="false" /><defs
     id="defs1"><pattern
       id="EMFhbasepattern"
       patternUnits="userSpaceOnUse"
       width="6"
       height="6"
       x="0"
       y="0" /><pattern
       id="EMFhbasepattern-8"
       patternUnits="userSpaceOnUse"
       width="6"
       height="6"
       x="0"
       y="0" /><clipPath
       id="d4788f7853"><path
         d="m 567,262.5625 h 219 v 324 H 567 Z m 0,0"
         clip-rule="nonzero"
         id="path1-7" /></clipPath><clipPath
       id="f416db12b7"><path
         d="M 166,95.398438 H 930 V 606.14844 H 166 Z m 0,0"
         clip-rule="nonzero"
         id="path1-3" /></clipPath></defs><g
     id="layer1"
     transform="translate(62.29563,-33.337466)"><path
       id="ellipse12"
       style="fill:#000000;fill-opacity:1;stroke-width:3.161"
       d="M -52.955632 43.648981 A 2.9671347 2.8830402 0 0 0 -53.367493 43.669135 A 2.9671347 2.8830402 0 0 0 -55.969918 46.761453 A 2.9671347 2.8830402 0 0 0 -52.89362 49.411937 A 2.9671347 2.8830402 0 0 0 -50.045215 46.530976 L -50.082939 46.071572 A 2.9671347 2.8830402 0 0 0 -52.955115 43.648981 L -52.955632 43.648981 z " /><path
       id="path12"
       style="fill:#000000;fill-opacity:1;stroke-width:3.161"
       d="M -38.363757 43.648981 A 2.9671347 2.8830402 0 0 0 -38.775619 43.669135 A 2.9671347 2.8830402 0 0 0 -41.378044 46.761453 A 2.9671347 2.8830402 0 0 0 -38.301746 49.411937 A 2.9671347 2.8830402 0 0 0 -35.453341 46.530976 L -35.491065 46.071572 A 2.9671347 2.8830402 0 0 0 -38.363757 43.648981 z " /><path
       style="fill:#000000;fill-opacity:1;fill-rule:nonzero;stroke:none;stroke-width:0.21952"
       d="m -28.50403,33.33747 v 39.23104 h 4.74755 V 33.33747 Z m 15.80469,7.05851 -10.26224,12.24038 10.26224,13.62095 h 5.7 L -17.81916,52.50774 -6.99934,40.39598 Z"
       id="path120" /><flowRoot
       xml:space="preserve"
       id="flowRoot120"
       style="font-style:normal;font-weight:normal;line-height:0.01%;font-family:sans-serif;letter-spacing:0px;word-spacing:0px;fill:#000000;fill-opacity:1;stroke:none;stroke-width:1px;stroke-linecap:butt;stroke-linejoin:miter;stroke-opacity:1"
       transform="matrix(0.27439991,0,0,-0.27439991,-28.50403,74.2655)"><flowRegion
         id="flowRegion120"><rect
           id="rect120"
           width="100.14363"
           height="149.61217"
           x="199.08072"
           y="19.93363" /></flowRegion><flowPara
         id="flowPara120"
         style="font-size:40px;line-height:1.25"> </flowPara></flowRoot><flowRoot
       xml:space="preserve"
       id="flowRoot121"
       style="font-style:normal;font-weight:normal;line-height:0.01%;font-family:sans-serif;letter-spacing:0px;word-spacing:0px;fill:#000000;fill-opacity:1;stroke:none;stroke-width:1px;stroke-linecap:butt;stroke-linejoin:miter;stroke-opacity:1"
       transform="matrix(0.27439991,0,0,-0.27439991,-28.50403,74.2655)"><flowRegion
         id="flowRegion121"><rect
           id="rect121"
           width="66.360237"
           height="101.35018"
           x="129.10083"
           y="-11.436664" /></flowRegion><flowPara
         id="flowPara121"
         style="font-size:40px;line-height:1.25"> </flowPara></flowRoot><path
       d="m -3.40992,53.23511 q 0,-3.84421 1.64261,-6.72736 1.6426,-2.92893 4.49301,-4.53068 2.89872,-1.60175 6.42548,-1.60175 3.47847,0 6.039,1.4187 2.56053,1.41869 3.81664,3.56962 V 40.7872 h 4.4447 v 25.07887 h -4.4447 v -4.66796 q -1.30443,2.19669 -3.91327,3.66115 -2.56053,1.4187 -5.99068,1.4187 -3.52676,0 -6.37717,-1.64752 -2.85041,-1.64752 -4.49301,-4.6222 -1.64261,-2.97469 -1.64261,-6.77313 z m 22.41674,0.0457 q 0,-2.83738 -1.20779,-4.94254 -1.20781,-2.10517 -3.28522,-3.20352 -2.0291,-1.1441 -4.49301,-1.1441 -2.46391,0 -4.493,1.09834 -2.02911,1.09834 -3.2369,3.2035 -1.20781,2.10517 -1.20781,4.94256 0,2.88316 1.20781,5.03408 1.20779,2.10516 3.2369,3.24927 2.02909,1.09835 4.493,1.09835 2.46391,0 4.49301,-1.09835 2.07741,-1.14411 3.28522,-3.24927 1.20779,-2.15092 1.20779,-4.98832 z M 54.37119,40.78714 v 25.07887 h -4.3964 V 62.1591 q -1.2561,1.92211 -3.52676,3.02045 -2.22235,1.05258 -4.92782,1.05258 -3.09196,0 -5.55588,-1.18988 -2.4639,-1.23563 -3.91326,-3.66115 -1.40105,-2.42551 -1.40105,-5.90359 V 40.78714 h 4.34807 v 14.1412 q 0,3.70691 1.9808,5.72054 1.98079,1.96787 5.41093,1.96787 3.52678,0 5.55588,-2.0594 2.02909,-2.05939 2.02909,-5.99513 V 40.78714 Z M 65.0964,62.43368 h 12.99591 v 3.43233 H 60.07196 V 62.43368 L 72.92293,44.1737 H 60.16859 v -3.38656 h 17.8271 v 3.38656 z"
       id="path121"
       style="font-size:47.0209px;font-family:poppins;-inkscape-font-specification:poppins;text-align:center;text-anchor:middle;fill:#000000;fill-opacity:1;stroke-width:1.71146"
       aria-label="auz" /><path
       d="m 94.566426,55.033649 h 5.880934 q 0.48263,0 1.39426,0.214497 l -0.0357,-2.127148 q 0,-0.625631 -0.44688,-1.054635 -0.429,-0.446881 -1.05463,-0.446881 h -5.702183 q -0.607759,0 -1.054636,-0.446877 -0.446881,-0.446881 -0.446881,-1.054636 0,-0.625631 0.429005,-1.054636 0.44688,-0.44688 1.072512,-0.44688 h 5.702183 q 1.85902,0 3.1639,1.304889 1.32277,1.304889 1.37639,3.199656 l 0.37538,11.243487 q 0,0.625632 -0.44688,1.072512 -0.44688,0.429004 -1.05463,0.429004 -0.64351,0 -1.09039,-0.429004 -0.44688,-0.44688 -0.44688,-1.072512 l -2.538275,1.501516 h -5.076551 q -1.894768,0 -3.217533,-1.322762 -1.322762,-1.322765 -1.322762,-3.217533 v -1.751769 q 0,-1.876891 1.322762,-3.199656 1.340642,-1.340639 3.217533,-1.340639 z m 7.507574,5.845184 -0.0894,-1.269136 q -0.018,-0.643508 -0.44688,-1.072512 -0.429,-0.429004 -1.05463,-0.429004 h -5.916687 q -0.625631,0 -1.072509,0.44688 -0.429004,0.429004 -0.429004,1.054636 v 1.680267 q 0,0.607755 0.446877,1.054636 0.446881,0.446877 1.054636,0.446877 h 4.236419 z"
       style="font-style:normal;font-variant:normal;font-weight:normal;font-stretch:normal;font-size:10.5833px;line-height:1.25;font-family:'OCR A Extended';-inkscape-font-specification:'OCR A Extended';letter-spacing:-0.967837px;white-space:pre;fill:#96db1e;fill-opacity:1;stroke:none;stroke-width:3.45907"
       id="path122" /><path
       d="m 114.86748,40.787133 h 1.57301 q 0.62563,0 1.05464,0.446877 0.44688,0.429004 0.44688,1.054636 v 1.287012 q 0,0.625632 -0.44688,1.090389 -0.42901,0.446877 -1.05464,0.446877 h -1.60876 q -0.64351,0 -1.09039,-0.464753 -0.42901,-0.464754 -0.41113,-1.03676 l 0.0357,-1.322765 q 0,-0.625632 0.42901,-1.054636 0.44688,-0.446877 1.07251,-0.446877 z m 6.11331,25.043126 h -9.1521 q -0.62563,0 -1.0725,-0.429004 -0.42901,-0.446881 -0.42901,-1.072513 0,-0.607755 0.42901,-1.054635 0.44687,-0.446881 1.0725,-0.446881 h 3.07454 V 51.619489 h -3.03878 q -0.62563,0 -1.07252,-0.446877 -0.429,-0.446881 -0.429,-1.054636 0,-0.625631 0.429,-1.072512 0.44689,-0.464754 1.07252,-0.464754 h 4.57604 q 0.62563,0 1.05464,0.464754 0.44688,0.446881 0.44688,1.072512 v 12.70925 h 3.00303 q 0.62563,0 1.07251,0.446881 0.46475,0.429004 0.46475,1.054635 0,0.625632 -0.44688,1.072513 -0.44688,0.429004 -1.05463,0.429004 z"
       style="font-style:normal;font-variant:normal;font-weight:normal;font-stretch:normal;font-size:10.5833px;line-height:1.25;font-family:'OCR A Extended';-inkscape-font-specification:'OCR A Extended';letter-spacing:-0.967837px;white-space:pre;fill:#96db1e;fill-opacity:1;stroke:none;stroke-width:3.45907"
       id="path123" /><path
       style="fill:#000000;fill-opacity:1;stroke:none;stroke-width:1.748;stroke-dasharray:none;stroke-opacity:1"
       id="path125"
       d="m 87.66106,63.21495 a 2.6531847,2.6531847 0 0 1 -2.54703,2.65106 2.6531847,2.6531847 0 0 1 -2.75084,-2.43894 2.6531847,2.6531847 0 0 1 2.32692,-2.84621 2.6531847,2.6531847 0 0 1 2.93703,2.21119" /><path
       id="path199"
       style="color:#000000;fill:#000000;fill-opacity:1;fill-rule:evenodd;stroke-miterlimit:8;-inkscape-stroke:none"
       d="m -59.23712,33.337466 c 0.74449,0.68312 1.64781,1.29199 2.66444,1.81229 2.83866,1.45278 6.65373,2.31252 10.85774,2.31252 4.204,0 8.01649,-0.85974 10.85515,-2.31252 1.01663,-0.5203 1.91995,-1.12917 2.66443,-1.81229 h -3.07733 c -0.13137,0.0731 -0.265,0.14559 -0.40359,0.21652 -2.50951,1.28433 -6.08265,2.11512 -10.03866,2.11512 -3.95602,0 -7.53173,-0.83079 -10.04125,-2.11512 -0.13859,-0.0709 -0.27223,-0.14342 -0.40359,-0.21652 z" /><path
       style="fill:none;fill-opacity:1;stroke:#000000;stroke-width:0.894;stroke-dasharray:none;stroke-opacity:1"
       id="path202"
       d="m -45.71624,55.098916 -1.7791,-2.44057 1.7791,-2.44057 1.77911,2.44057 z" /><path
       id="path203"
       style="color:#000000;fill:#96db1e;fill-opacity:1;fill-rule:evenodd;stroke:none;stroke-width:0.178531;stroke-miterlimit:8;-inkscape-stroke:none"
       d="m -62.29563,38.311416 v 14.44149 c -10e-6,1.04497 0.0109,2.08628 0.13244,3.1502 0.88908,7.78085 8.41437,13.33412 16.44691,13.28652 v -1.42368 c -7.12255,-0.0581 -13.74095,-5.19575 -14.78292,-12.08919 -0.14943,-0.98874 -0.16352,-1.93149 -0.16351,-2.92385 v -14.44149 z" /><path
       id="path13"
       style="fill:none;fill-opacity:1;stroke:#000000;stroke-width:0.894;stroke-dasharray:none;stroke-opacity:1"
       d="m -38.31019,40.919796 c -0.267911,-0.005 -0.535855,0.0081 -0.80189,0.0393 -3.077877,0.360805 -5.313774,3.018098 -5.06601,6.020792 0.247952,3.002763 2.891284,5.279847 5.98908,5.15926 3.097679,-0.120613 5.544999,-2.595712 5.54507,-5.608012 l -0.0738,-0.894675 c -0.445369,-2.679195 -2.799836,-4.664963 -5.59241,-4.716663 z"
       sodipodi:nodetypes="scccccss" /><path
       id="path14"
       style="fill:none;fill-opacity:1;stroke:#000000;stroke-width:0.894;stroke-dasharray:none;stroke-opacity:1"
       d="m -52.90183,40.919796 c -0.268068,-0.005 -0.536169,0.0081 -0.80236,0.0393 -3.077873,0.36081 -5.313764,3.018101 -5.066,6.020792 0.247952,3.002763 2.891284,5.279847 5.98908,5.15926 3.097671,-0.120623 5.544979,-2.595719 5.54505,-5.608012 l -0.0738,-0.894675 c -0.445336,-2.679025 -2.799539,-4.66474 -5.59193,-4.716663 z"
       sodipodi:nodetypes="scccccss" /></g></svg>
